<svg width="118" height="122" viewBox="0 0 118 122" fill="none" xmlns="http://www.w3.org/2000/svg">
<path d="M0.46967 115.47C0.176777 115.763 0.176777 116.237 0.46967 116.53L5.24264 121.303C5.53553 121.596 6.01041 121.596 6.3033 121.303C6.59619 121.01 6.59619 120.536 6.3033 120.243L2.06066 116L6.3033 111.757C6.59619 111.464 6.59619 110.99 6.3033 110.697C6.01041 110.404 5.53553 110.404 5.24264 110.697L0.46967 115.47ZM1 116.75C1.88849 116.75 2.77065 116.744 3.6465 116.732L3.6265 115.233C2.75737 115.244 1.88188 115.25 1 115.25V116.75ZM8.8264 116.593C10.5908 116.522 12.3285 116.426 14.0398 116.306L13.9351 114.81C12.2386 114.928 10.5155 115.023 8.76548 115.095L8.8264 116.593ZM19.1695 115.869C20.9364 115.692 22.6737 115.488 24.382 115.259L24.1826 113.772C22.4909 113.999 20.77 114.201 19.0193 114.377L19.1695 115.869ZM29.5151 114.48C31.2451 114.187 32.9435 113.867 34.6109 113.521L34.3061 112.052C32.6569 112.394 30.9765 112.711 29.2644 113.001L29.5151 114.48ZM39.7124 112.358C41.4191 111.934 43.0912 111.481 44.7294 111.001L44.3077 109.562C42.6895 110.036 41.0373 110.483 39.3503 110.903L39.7124 112.358ZM49.671 109.438C51.348 108.867 52.9869 108.266 54.5884 107.637L54.0402 106.241C52.4602 106.861 50.843 107.454 49.1875 108.018L49.671 109.438ZM59.3969 105.616C61.0017 104.896 62.5659 104.145 64.0904 103.367L63.4085 102.031C61.9063 102.798 60.3646 103.537 58.7825 104.248L59.3969 105.616ZM68.6593 100.885C70.187 100.003 71.6712 99.0916 73.113 98.1527L72.2944 96.8957C70.8751 97.82 69.4138 98.7174 67.9092 99.5862L68.6593 100.885ZM77.4115 95.1828C78.8311 94.1431 80.2052 93.0755 81.535 91.9824L80.5824 90.8236C79.2741 91.8991 77.9221 92.9495 76.5251 93.9727L77.4115 95.1828ZM85.4704 88.5569C86.7615 87.3673 88.006 86.1525 89.2051 84.9151L88.1278 83.8712C86.9483 85.0885 85.7241 86.2835 84.454 87.4538L85.4704 88.5569ZM92.7277 81.0679C93.8746 79.7421 94.9744 78.3948 96.0285 77.0289L94.841 76.1125C93.8038 77.4566 92.7217 78.7822 91.5932 80.0866L92.7277 81.0679ZM99.1002 72.8131C100.092 71.3698 101.037 69.9099 101.937 68.4363L100.657 67.6545C99.7711 69.1055 98.8405 70.5428 97.864 71.9634L99.1002 72.8131ZM104.537 63.9151C105.37 62.3752 106.156 60.8243 106.899 59.2656L105.544 58.6207C104.813 60.1567 104.038 61.6848 103.218 63.2017L104.537 63.9151ZM109.022 54.5036C109.696 52.8871 110.325 51.2659 110.91 49.6438L109.499 49.1343C108.922 50.7343 108.302 52.3329 107.638 53.9267L109.022 54.5036ZM112.565 44.6999C113.082 43.0241 113.556 41.351 113.989 39.6848L112.537 39.3081C112.11 40.9526 111.642 42.6037 111.132 44.2572L112.565 44.6999ZM115.184 34.6102C115.55 32.8891 115.872 31.1798 116.154 29.487L114.674 29.2407C114.396 30.9122 114.078 32.5997 113.717 34.2988L115.184 34.6102ZM116.897 24.326C117.11 22.5713 117.281 20.8402 117.412 19.1382L115.916 19.0231C115.787 20.7033 115.618 22.4124 115.408 24.1449L116.897 24.326ZM117.695 13.9366C117.751 12.1606 117.763 10.4253 117.736 8.73757L116.237 8.76145C116.263 10.4253 116.251 12.1369 116.195 13.8893L117.695 13.9366ZM117.52 3.50795C117.46 2.63077 117.39 1.77048 117.309 0.928279L115.816 1.07172C115.895 1.89974 115.965 2.74606 116.023 3.60949L117.52 3.50795Z" fill="black"/>
</svg>
