<svg width="0" height="0" class="hidden">
  <symbol fill="none" xmlns="http://www.w3.org/2000/svg" viewBox="0 0 118 122" id="arrow-down-left">
    <path d="M0.46967 115.47C0.176777 115.763 0.176777 116.237 0.46967 116.53L5.24264 121.303C5.53553 121.596 6.01041 121.596 6.3033 121.303C6.59619 121.01 6.59619 120.536 6.3033 120.243L2.06066 116L6.3033 111.757C6.59619 111.464 6.59619 110.99 6.3033 110.697C6.01041 110.404 5.53553 110.404 5.24264 110.697L0.46967 115.47ZM1 116.75C1.88849 116.75 2.77065 116.744 3.6465 116.732L3.6265 115.233C2.75737 115.244 1.88188 115.25 1 115.25V116.75ZM8.8264 116.593C10.5908 116.522 12.3285 116.426 14.0398 116.306L13.9351 114.81C12.2386 114.928 10.5155 115.023 8.76548 115.095L8.8264 116.593ZM19.1695 115.869C20.9364 115.692 22.6737 115.488 24.382 115.259L24.1826 113.772C22.4909 113.999 20.77 114.201 19.0193 114.377L19.1695 115.869ZM29.5151 114.48C31.2451 114.187 32.9435 113.867 34.6109 113.521L34.3061 112.052C32.6569 112.394 30.9765 112.711 29.2644 113.001L29.5151 114.48ZM39.7124 112.358C41.4191 111.934 43.0912 111.481 44.7294 111.001L44.3077 109.562C42.6895 110.036 41.0373 110.483 39.3503 110.903L39.7124 112.358ZM49.671 109.438C51.348 108.867 52.9869 108.266 54.5884 107.637L54.0402 106.241C52.4602 106.861 50.843 107.454 49.1875 108.018L49.671 109.438ZM59.3969 105.616C61.0017 104.896 62.5659 104.145 64.0904 103.367L63.4085 102.031C61.9063 102.798 60.3646 103.537 58.7825 104.248L59.3969 105.616ZM68.6593 100.885C70.187 100.003 71.6712 99.0916 73.113 98.1527L72.2944 96.8957C70.8751 97.82 69.4138 98.7174 67.9092 99.5862L68.6593 100.885ZM77.4115 95.1828C78.8311 94.1431 80.2052 93.0755 81.535 91.9824L80.5824 90.8236C79.2741 91.8991 77.9221 92.9495 76.5251 93.9727L77.4115 95.1828ZM85.4704 88.5569C86.7615 87.3673 88.006 86.1525 89.2051 84.9151L88.1278 83.8712C86.9483 85.0885 85.7241 86.2835 84.454 87.4538L85.4704 88.5569ZM92.7277 81.0679C93.8746 79.7421 94.9744 78.3948 96.0285 77.0289L94.841 76.1125C93.8038 77.4566 92.7217 78.7822 91.5932 80.0866L92.7277 81.0679ZM99.1002 72.8131C100.092 71.3698 101.037 69.9099 101.937 68.4363L100.657 67.6545C99.7711 69.1055 98.8405 70.5428 97.864 71.9634L99.1002 72.8131ZM104.537 63.9151C105.37 62.3752 106.156 60.8243 106.899 59.2656L105.544 58.6207C104.813 60.1567 104.038 61.6848 103.218 63.2017L104.537 63.9151ZM109.022 54.5036C109.696 52.8871 110.325 51.2659 110.91 49.6438L109.499 49.1343C108.922 50.7343 108.302 52.3329 107.638 53.9267L109.022 54.5036ZM112.565 44.6999C113.082 43.0241 113.556 41.351 113.989 39.6848L112.537 39.3081C112.11 40.9526 111.642 42.6037 111.132 44.2572L112.565 44.6999ZM115.184 34.6102C115.55 32.8891 115.872 31.1798 116.154 29.487L114.674 29.2407C114.396 30.9122 114.078 32.5997 113.717 34.2988L115.184 34.6102ZM116.897 24.326C117.11 22.5713 117.281 20.8402 117.412 19.1382L115.916 19.0231C115.787 20.7033 115.618 22.4124 115.408 24.1449L116.897 24.326ZM117.695 13.9366C117.751 12.1606 117.763 10.4253 117.736 8.73757L116.237 8.76145C116.263 10.4253 116.251 12.1369 116.195 13.8893L117.695 13.9366ZM117.52 3.50795C117.46 2.63077 117.39 1.77048 117.309 0.928279L115.816 1.07172C115.895 1.89974 115.965 2.74606 116.023 3.60949L117.52 3.50795Z" fill="black"></path>
  </symbol>
  <symbol fill="none" xmlns="http://www.w3.org/2000/svg" viewBox="0 0 152 12" id="arrow-right">
    <path d="M151.53 6.53033C151.823 6.23744 151.823 5.76256 151.53 5.46967L146.757 0.696699C146.464 0.403806 145.99 0.403806 145.697 0.696699C145.404 0.989593 145.404 1.46447 145.697 1.75736L149.939 6L145.697 10.2426C145.404 10.5355 145.404 11.0104 145.697 11.3033C145.99 11.5962 146.464 11.5962 146.757 11.3033L151.53 6.53033ZM0 6.75H2.69643V5.25H0V6.75ZM8.08929 6.75H13.4821V5.25H8.08929V6.75ZM18.875 6.75H24.2679V5.25H18.875V6.75ZM29.6607 6.75H35.0536V5.25H29.6607V6.75ZM40.4464 6.75H45.8393V5.25H40.4464V6.75ZM51.2321 6.75H56.625V5.25H51.2321V6.75ZM62.0179 6.75H67.4107V5.25H62.0179V6.75ZM72.8036 6.75H78.1964V5.25H72.8036V6.75ZM83.5893 6.75H88.9822V5.25H83.5893V6.75ZM94.375 6.75H99.7679V5.25H94.375V6.75ZM105.161 6.75H110.554V5.25H105.161V6.75ZM115.946 6.75H121.339V5.25H115.946V6.75ZM126.732 6.75H132.125V5.25H126.732V6.75ZM137.518 6.75H142.911V5.25H137.518V6.75ZM148.304 6.75H151V5.25H148.304V6.75Z" fill="#1A2E49"></path>
  </symbol>
  <symbol fill="none" xmlns="http://www.w3.org/2000/svg" viewBox="0 0 18 8" id="burger">
    <path d="M1 1H17" stroke="black" stroke-width="2" stroke-linecap="round" stroke-linejoin="round"></path>
    <path d="M1 7H17" stroke="black" stroke-width="2" stroke-linecap="round" stroke-linejoin="round"></path>
  </symbol>
  <symbol fill="none" xmlns="http://www.w3.org/2000/svg" viewBox="0 0 24 24" id="checked">
    <path d="M9 11L12 14L22 4" stroke="#415D0F" stroke-width="2" stroke-linecap="round" stroke-linejoin="round"></path>
    <path d="M21 12V19C21 19.5304 20.7893 20.0391 20.4142 20.4142C20.0391 20.7893 19.5304 21 19 21H5C4.46957 21 3.96086 20.7893 3.58579 20.4142C3.21071 20.0391 3 19.5304 3 19V5C3 4.46957 3.21071 3.96086 3.58579 3.58579C3.96086 3.21071 4.46957 3 5 3H16" stroke="#415D0F" stroke-width="2" stroke-linecap="round" stroke-linejoin="round"></path>
  </symbol>
  <symbol fill="none" xmlns="http://www.w3.org/2000/svg" viewBox="0 0 24 24" id="cross">
    <path d="M18 6L6 18" stroke="black" stroke-width="2" stroke-linecap="round" stroke-linejoin="round"></path>
    <path d="M6 6L18 18" stroke="black" stroke-width="2" stroke-linecap="round" stroke-linejoin="round"></path>
  </symbol>
  <symbol fill="none" xmlns="http://www.w3.org/2000/svg" viewBox="0 0 15 21" id="location">
    <path opacity="0.6" d="M7.5 0C3.35953 0 0 3.02391 0 6.75C0 12.75 7.5 21 7.5 21C7.5 21 15 12.75 15 6.75C15 3.02391 11.6405 0 7.5 0ZM7.5 10.5C6.90666 10.5 6.32664 10.3241 5.83329 9.99441C5.33994 9.66476 4.95542 9.19623 4.72836 8.64805C4.5013 8.09987 4.44189 7.49667 4.55764 6.91473C4.6734 6.33279 4.95912 5.79824 5.37868 5.37868C5.79824 4.95912 6.33279 4.6734 6.91473 4.55764C7.49667 4.44189 8.09987 4.5013 8.64805 4.72836C9.19623 4.95542 9.66476 5.33994 9.99441 5.83329C10.3241 6.32664 10.5 6.90665 10.5 7.5C10.4991 8.29538 10.1828 9.05794 9.62036 9.62036C9.05794 10.1828 8.29538 10.4991 7.5 10.5Z" fill="white"></path>
  </symbol>
  <symbol fill="none" xmlns="http://www.w3.org/2000/svg" viewBox="0 0 48 48" id="round-left">
    <path d="M24 44C35.05 44 44 35.05 44 24C44 12.95 35.05 4 24 4C12.95 4 4 12.95 4 24C4 35.05 12.95 44 24 44ZM28 15L28 33L16 24L28 15Z" fill="#415D0F"></path>
  </symbol>
  <symbol fill="none" xmlns="http://www.w3.org/2000/svg" viewBox="0 0 48 48" id="round-right">
    <path d="M24 4C12.95 4 4 12.95 4 24C4 35.05 12.95 44 24 44C35.05 44 44 35.05 44 24C44 12.95 35.05 4 24 4ZM20 33L20 15L32 24L20 33Z" fill="#415D0F"></path>
  </symbol>
  <symbol fill="none" xmlns="http://www.w3.org/2000/svg" viewBox="0 0 20 18" id="telegram">
    <path fill-rule="evenodd" clip-rule="evenodd" d="M14.575 17.6966C15.7253 18.2385 16.1567 17.1031 16.1567 17.1031L19.2002 0.639729C19.1762 -0.469892 17.7862 0.200991 17.7862 0.200991L0.747396 7.40054C0.747396 7.40054 -0.0674049 7.71013 0.00449294 8.2521C0.0763839 8.79399 0.72343 9.05197 0.72343 9.05197L5.01312 10.6003C5.01312 10.6003 6.30721 15.1677 6.5708 16.0451C6.81046 16.8966 7.02612 16.9224 7.02612 16.9224C7.26578 17.0256 7.48144 16.845 7.48144 16.845L10.2614 14.1355L14.575 17.6966ZM15.3179 3.55562C15.3179 3.55562 15.917 3.1685 15.893 3.55562C15.893 3.55562 15.9889 3.60716 15.6774 3.96845C15.3898 4.27812 8.60781 10.8325 7.69717 11.7099C7.62524 11.7615 7.5773 11.8389 7.5773 11.9421L7.31371 14.3677C7.26578 14.6258 6.95426 14.6515 6.88233 14.4193L5.75603 10.4454C5.7081 10.2906 5.75603 10.11 5.89983 10.0068L15.3179 3.55562Z" fill="white"></path>
  </symbol>
  <symbol fill="none" xmlns="http://www.w3.org/2000/svg" viewBox="0 0 20 20" id="unchecked">
    <path d="M19 10V17C19 17.5304 18.7893 18.0391 18.4142 18.4142C18.0391 18.7893 17.5304 19 17 19H3C2.46957 19 1.96086 18.7893 1.58579 18.4142C1.21071 18.0391 1 17.5304 1 17V3C1 2.46957 1.21071 1.96086 1.58579 1.58579C1.96086 1.21071 2.46957 1 3 1H14" stroke="#415D0F" stroke-width="2" stroke-linecap="round" stroke-linejoin="round"></path>
  </symbol>
  <symbol fill="none" xmlns="http://www.w3.org/2000/svg" viewBox="0 0 20 20" id="whatsapp">
    <path d="M16.7879 2.89162C14.9702 1.01739 12.4573 0 9.891 0C4.4376 0 0.0534817 4.44453 0.106893 9.85289C0.106893 11.5664 0.58809 13.2265 1.39004 14.7258L0 19.8129L5.18606 18.4742C6.62965 19.2774 8.23355 19.6523 9.83752 19.6523C15.2374 19.6523 19.6216 15.2078 19.6216 9.79932C19.6216 7.17546 18.6057 4.71229 16.7879 2.89162ZM9.891 17.9922C8.44741 17.9922 7.00389 17.6174 5.77422 16.8677L5.4534 16.7071L2.35243 17.5103L3.15438 14.458L2.94052 14.1368C0.58809 10.3348 1.71086 5.3013 5.56037 2.94519C9.4098 0.589031 14.382 1.71353 16.7345 5.56906C19.0869 9.42451 17.9642 14.4046 14.1147 16.7607C12.885 17.5639 11.388 17.9922 9.891 17.9922ZM14.5959 12.0484L14.0078 11.7806C14.0078 11.7806 13.1523 11.4058 12.6177 11.138C12.5643 11.138 12.5108 11.0845 12.4573 11.0845C12.2969 11.0845 12.1899 11.138 12.0831 11.1916C12.0831 11.1916 12.0296 11.2452 11.281 12.1019C11.2276 12.2091 11.1207 12.2626 11.0138 12.2626H10.9603C10.9068 12.2626 10.7999 12.2091 10.7464 12.1555L10.4791 12.0484C9.891 11.7806 9.35632 11.4594 8.92861 11.031C8.82171 10.9238 8.66127 10.8168 8.55437 10.7097C8.18014 10.3348 7.80584 9.90645 7.53857 9.42451L7.48508 9.31745C7.4316 9.26388 7.4316 9.21031 7.37812 9.10325C7.37812 8.99612 7.37812 8.88906 7.4316 8.8355C7.4316 8.8355 7.64546 8.56774 7.80584 8.40711C7.9128 8.29998 7.96628 8.13936 8.07318 8.0323C8.18014 7.8716 8.23355 7.65741 8.18014 7.49678C8.12666 7.22902 7.48509 5.78325 7.32464 5.46192C7.21775 5.3013 7.11078 5.24773 6.95041 5.19417H6.79003C6.68307 5.19417 6.52269 5.19417 6.36231 5.19417C6.25535 5.19417 6.14846 5.24773 6.04149 5.24773L5.98808 5.3013C5.88112 5.35486 5.77422 5.46192 5.66726 5.51549C5.56037 5.62255 5.50688 5.72968 5.39992 5.83674C5.02569 6.31869 4.81183 6.90777 4.81183 7.49678C4.81183 7.92516 4.91872 8.35355 5.07917 8.72836L5.13258 8.88906C5.61378 9.90646 6.25535 10.8168 7.11078 11.62L7.32464 11.8342C7.48509 11.9949 7.64546 12.1019 7.75242 12.2626C8.87512 13.2265 10.1583 13.9226 11.6019 14.2974C11.7622 14.351 11.9761 14.351 12.1365 14.4046C12.2969 14.4046 12.5108 14.4046 12.6711 14.4046C12.9385 14.4046 13.2593 14.2974 13.4732 14.1904C13.6335 14.0832 13.7404 14.0832 13.8474 13.9762L13.9543 13.869C14.0613 13.7619 14.1682 13.7084 14.2751 13.6013C14.382 13.4942 14.489 13.3871 14.5425 13.28C14.6493 13.0658 14.7028 12.7981 14.7563 12.5303C14.7563 12.4233 14.7563 12.2626 14.7563 12.1555C14.7563 12.1555 14.7028 12.1019 14.5959 12.0484Z" fill="white"></path>
  </symbol>
</svg>