<svg width="22" height="23" viewBox="0 0 22 23" fill="none" xmlns="http://www.w3.org/2000/svg">
<path d="M19.0286 2.20914C18.4678 1.69273 16.1971 0.039145 11.1356 0.0164946C11.1356 0.0164946 5.16937 -0.345933 2.26092 2.32696C0.64161 3.94878 0.0716837 6.3182 0.0128817 9.26289C-0.0459203 12.2031 -0.122817 17.7165 5.18293 19.2115H5.18746L5.18293 21.4902C5.18293 21.4902 5.15128 22.4144 5.75739 22.6002C6.49017 22.8267 6.92439 22.1244 7.62552 21.3679C8.00999 20.9511 8.53923 20.344 8.9418 19.8774C12.5695 20.1809 15.3603 19.4833 15.6769 19.3791C16.4096 19.139 20.5575 18.6089 21.2314 13.0956C21.928 7.42354 20.8922 3.83104 19.0286 2.20914ZM19.6438 12.6969C19.0739 17.2996 15.7131 17.5896 15.0934 17.789C14.831 17.875 12.3795 18.4867 9.29462 18.2828C9.29462 18.2828 6.9968 21.0599 6.28211 21.7802C6.169 21.8934 6.03787 21.9387 5.95189 21.9161C5.82981 21.8844 5.79356 21.7394 5.79815 21.5264C5.79815 21.2184 5.81624 17.7346 5.81624 17.7346C5.81172 17.7346 5.81172 17.7346 5.81624 17.7346C1.3246 16.4887 1.58699 11.7953 1.63673 9.33988C1.68647 6.88449 2.14788 4.86846 3.51842 3.51389C5.9745 1.28501 11.0451 1.61567 11.0451 1.61567C15.3241 1.63379 17.3731 2.92495 17.8481 3.35532C19.4267 4.71441 20.2318 7.95361 19.6438 12.6969Z" fill="white"/>
<path d="M13.2198 9.42627C13.0705 9.42627 12.9439 9.30846 12.9348 9.15441C12.8851 8.18039 12.4283 7.70474 11.4965 7.65493C11.3381 7.64587 11.216 7.50994 11.2251 7.35136C11.2341 7.19279 11.3698 7.07052 11.5281 7.07957C12.7584 7.1475 13.446 7.85426 13.5093 9.12271C13.5183 9.28128 13.3962 9.41721 13.2379 9.42174C13.2289 9.42627 13.2243 9.42627 13.2198 9.42627Z" fill="white"/>
<path d="M14.6861 9.91582H14.6816C14.5233 9.9113 14.3966 9.77989 14.4011 9.62132C14.4238 8.64277 14.1433 7.84998 13.5462 7.19764C12.9537 6.54522 12.135 6.19192 11.0539 6.11486C10.8956 6.10127 10.778 5.96534 10.7916 5.80684C10.8052 5.64827 10.9408 5.53045 11.0991 5.54404C12.3205 5.63468 13.2839 6.06052 13.9714 6.81256C14.6635 7.56913 14.9982 8.51597 14.9756 9.63491C14.971 9.79348 14.8399 9.91582 14.6861 9.91582Z" fill="white"/>
<path d="M16.188 10.504C16.0297 10.504 15.903 10.3772 15.903 10.2186C15.8895 8.46542 15.3874 7.12897 14.3651 6.12778C13.3565 5.14017 12.0764 4.63728 10.5702 4.62369C10.4118 4.62369 10.2852 4.49229 10.2852 4.33372C10.2852 4.17521 10.4164 4.04834 10.5702 4.04834C12.2302 4.06193 13.6415 4.61916 14.7586 5.71553C15.8804 6.81182 16.4549 8.32496 16.473 10.2096C16.4775 10.3727 16.3509 10.504 16.188 10.504C16.1926 10.504 16.1926 10.504 16.188 10.504Z" fill="white"/>
<path d="M11.5649 12.9733C11.5649 12.9733 11.9675 13.0095 12.1846 12.7423L12.6052 12.2122C12.8088 11.9495 13.3018 11.7818 13.7813 12.0491C14.0482 12.1986 14.5321 12.4977 14.8307 12.7196C15.1518 12.9552 15.8032 13.4988 15.8077 13.5034C16.1198 13.7661 16.1922 14.1512 15.9796 14.5634C15.9796 14.5634 15.9796 14.568 15.9796 14.5725C15.7624 14.9576 15.4685 15.32 15.1021 15.6553C15.0976 15.6553 15.0976 15.6598 15.093 15.6598C14.79 15.9135 14.4915 16.0585 14.2019 16.0902C14.1658 16.0992 14.1251 16.0992 14.0708 16.0992C13.9441 16.0992 13.8175 16.0811 13.6908 16.0403L13.6818 16.0268C13.2294 15.8999 12.4786 15.5828 11.2302 14.8896C10.416 14.4412 9.74201 13.9835 9.16755 13.526C8.86453 13.2859 8.55692 13.0186 8.24034 12.7015C8.23123 12.6925 8.21766 12.6788 8.20862 12.6697C8.19957 12.6607 8.18601 12.6471 8.17697 12.638C8.16792 12.629 8.15436 12.6154 8.14532 12.6063C8.13627 12.5973 8.12271 12.5837 8.11366 12.5746C7.80153 12.2575 7.53017 11.9495 7.29045 11.6459C6.83356 11.0751 6.37673 10.3956 5.92895 9.58006C5.23687 8.32519 4.92021 7.57315 4.79361 7.12467L4.78004 7.11562C4.73928 6.98874 4.72119 6.86187 4.72119 6.73507C4.72119 6.68065 4.72119 6.63989 4.73023 6.60366C4.76648 6.30923 4.91117 6.01472 5.16 5.71116C5.16 5.70663 5.16452 5.70663 5.16452 5.7021C5.49919 5.33068 5.86106 5.04071 6.24554 4.82326C6.24554 4.82326 6.25006 4.82326 6.25458 4.82326C6.66166 4.61034 7.04614 4.6828 7.31306 4.99542C7.31306 4.99542 7.86038 5.65229 8.09558 5.97397C8.31721 6.27746 8.6157 6.75771 8.76499 7.02497C9.0319 7.50522 8.86453 7.99899 8.60214 8.20285L8.07297 8.62423C7.80605 8.84167 7.84223 9.24487 7.84223 9.24487C7.84223 9.24487 8.62482 12.2258 11.5649 12.9733Z" fill="white"/>
</svg>
