<svg width="20" height="20" viewBox="0 0 20 20" fill="none" xmlns="http://www.w3.org/2000/svg">
<path d="M16.7879 2.89162C14.9702 1.01739 12.4573 0 9.891 0C4.4376 0 0.0534817 4.44453 0.106893 9.85289C0.106893 11.5664 0.58809 13.2265 1.39004 14.7258L0 19.8129L5.18606 18.4742C6.62965 19.2774 8.23355 19.6523 9.83752 19.6523C15.2374 19.6523 19.6216 15.2078 19.6216 9.79932C19.6216 7.17546 18.6057 4.71229 16.7879 2.89162ZM9.891 17.9922C8.44741 17.9922 7.00389 17.6174 5.77422 16.8677L5.4534 16.7071L2.35243 17.5103L3.15438 14.458L2.94052 14.1368C0.58809 10.3348 1.71086 5.3013 5.56037 2.94519C9.4098 0.589031 14.382 1.71353 16.7345 5.56906C19.0869 9.42451 17.9642 14.4046 14.1147 16.7607C12.885 17.5639 11.388 17.9922 9.891 17.9922ZM14.5959 12.0484L14.0078 11.7806C14.0078 11.7806 13.1523 11.4058 12.6177 11.138C12.5643 11.138 12.5108 11.0845 12.4573 11.0845C12.2969 11.0845 12.1899 11.138 12.0831 11.1916C12.0831 11.1916 12.0296 11.2452 11.281 12.1019C11.2276 12.2091 11.1207 12.2626 11.0138 12.2626H10.9603C10.9068 12.2626 10.7999 12.2091 10.7464 12.1555L10.4791 12.0484C9.891 11.7806 9.35632 11.4594 8.92861 11.031C8.82171 10.9238 8.66127 10.8168 8.55437 10.7097C8.18014 10.3348 7.80584 9.90645 7.53857 9.42451L7.48508 9.31745C7.4316 9.26388 7.4316 9.21031 7.37812 9.10325C7.37812 8.99612 7.37812 8.88906 7.4316 8.8355C7.4316 8.8355 7.64546 8.56774 7.80584 8.40711C7.9128 8.29998 7.96628 8.13936 8.07318 8.0323C8.18014 7.8716 8.23355 7.65741 8.18014 7.49678C8.12666 7.22902 7.48509 5.78325 7.32464 5.46192C7.21775 5.3013 7.11078 5.24773 6.95041 5.19417H6.79003C6.68307 5.19417 6.52269 5.19417 6.36231 5.19417C6.25535 5.19417 6.14846 5.24773 6.04149 5.24773L5.98808 5.3013C5.88112 5.35486 5.77422 5.46192 5.66726 5.51549C5.56037 5.62255 5.50688 5.72968 5.39992 5.83674C5.02569 6.31869 4.81183 6.90777 4.81183 7.49678C4.81183 7.92516 4.91872 8.35355 5.07917 8.72836L5.13258 8.88906C5.61378 9.90646 6.25535 10.8168 7.11078 11.62L7.32464 11.8342C7.48509 11.9949 7.64546 12.1019 7.75242 12.2626C8.87512 13.2265 10.1583 13.9226 11.6019 14.2974C11.7622 14.351 11.9761 14.351 12.1365 14.4046C12.2969 14.4046 12.5108 14.4046 12.6711 14.4046C12.9385 14.4046 13.2593 14.2974 13.4732 14.1904C13.6335 14.0832 13.7404 14.0832 13.8474 13.9762L13.9543 13.869C14.0613 13.7619 14.1682 13.7084 14.2751 13.6013C14.382 13.4942 14.489 13.3871 14.5425 13.28C14.6493 13.0658 14.7028 12.7981 14.7563 12.5303C14.7563 12.4233 14.7563 12.2626 14.7563 12.1555C14.7563 12.1555 14.7028 12.1019 14.5959 12.0484Z" fill="white"/>
</svg>
