<svg width="152" height="12" viewBox="0 0 152 12" fill="none" xmlns="http://www.w3.org/2000/svg">
<path d="M151.53 6.53033C151.823 6.23744 151.823 5.76256 151.53 5.46967L146.757 0.696699C146.464 0.403806 145.99 0.403806 145.697 0.696699C145.404 0.989593 145.404 1.46447 145.697 1.75736L149.939 6L145.697 10.2426C145.404 10.5355 145.404 11.0104 145.697 11.3033C145.99 11.5962 146.464 11.5962 146.757 11.3033L151.53 6.53033ZM0 6.75H2.69643V5.25H0V6.75ZM8.08929 6.75H13.4821V5.25H8.08929V6.75ZM18.875 6.75H24.2679V5.25H18.875V6.75ZM29.6607 6.75H35.0536V5.25H29.6607V6.75ZM40.4464 6.75H45.8393V5.25H40.4464V6.75ZM51.2321 6.75H56.625V5.25H51.2321V6.75ZM62.0179 6.75H67.4107V5.25H62.0179V6.75ZM72.8036 6.75H78.1964V5.25H72.8036V6.75ZM83.5893 6.75H88.9822V5.25H83.5893V6.75ZM94.375 6.75H99.7679V5.25H94.375V6.75ZM105.161 6.75H110.554V5.25H105.161V6.75ZM115.946 6.75H121.339V5.25H115.946V6.75ZM126.732 6.75H132.125V5.25H126.732V6.75ZM137.518 6.75H142.911V5.25H137.518V6.75ZM148.304 6.75H151V5.25H148.304V6.75Z" fill="#1A2E49"/>
</svg>
