<svg width="20" height="18" viewBox="0 0 20 18" fill="none" xmlns="http://www.w3.org/2000/svg">
<path fill-rule="evenodd" clip-rule="evenodd" d="M14.575 17.6966C15.7253 18.2385 16.1567 17.1031 16.1567 17.1031L19.2002 0.639729C19.1762 -0.469892 17.7862 0.200991 17.7862 0.200991L0.747396 7.40054C0.747396 7.40054 -0.0674049 7.71013 0.00449294 8.2521C0.0763839 8.79399 0.72343 9.05197 0.72343 9.05197L5.01312 10.6003C5.01312 10.6003 6.30721 15.1677 6.5708 16.0451C6.81046 16.8966 7.02612 16.9224 7.02612 16.9224C7.26578 17.0256 7.48144 16.845 7.48144 16.845L10.2614 14.1355L14.575 17.6966ZM15.3179 3.55562C15.3179 3.55562 15.917 3.1685 15.893 3.55562C15.893 3.55562 15.9889 3.60716 15.6774 3.96845C15.3898 4.27812 8.60781 10.8325 7.69717 11.7099C7.62524 11.7615 7.5773 11.8389 7.5773 11.9421L7.31371 14.3677C7.26578 14.6258 6.95426 14.6515 6.88233 14.4193L5.75603 10.4454C5.7081 10.2906 5.75603 10.11 5.89983 10.0068L15.3179 3.55562Z" fill="white"/>
</svg>
